<svg width="34" height="32" viewBox="0 0 34 32" fill="none" xmlns="http://www.w3.org/2000/svg">
<path d="M33.3333 0H0V10H1.66667V28.3333C1.66667 29.2174 2.01786 30.0652 2.64298 30.6904C3.2681 31.3155 4.11594 31.6667 5 31.6667H28.3333C29.2174 31.6667 30.0652 31.3155 30.6903 30.6904C31.3155 30.0652 31.6667 29.2174 31.6667 28.3333V10H33.3333V0ZM3.33333 3.33333H30V6.66667H3.33333V3.33333ZM28.3333 28.3333H5V10H28.3333V28.3333ZM11.6667 13.3333H21.6667C21.6667 14.2174 21.3155 15.0652 20.6904 15.6904C20.0652 16.3155 19.2174 16.6667 18.3333 16.6667H15C14.1159 16.6667 13.2681 16.3155 12.643 15.6904C12.0179 15.0652 11.6667 14.2174 11.6667 13.3333Z" fill="#A40201"/>
</svg>
