<svg width="41" height="46" viewBox="0 0 41 46" fill="none" xmlns="http://www.w3.org/2000/svg">
<path fill-rule="evenodd" clip-rule="evenodd" d="M24.4579 3.31294H14.1891C13.8646 4.90442 13.0791 6.36531 11.9306 7.51382C10.7821 8.66233 9.32123 9.44774 7.72976 9.77232V11.2077C9.32123 11.5323 10.7821 12.3177 11.9306 13.4662C13.0791 14.6147 13.8646 16.0756 14.1891 17.6671H24.4579C24.7825 16.0756 25.5679 14.6147 26.7164 13.4662C27.8649 12.3177 29.3258 11.5323 30.9173 11.2077V9.77232C29.3258 9.44774 27.8649 8.66233 26.7164 7.51382C25.5679 6.36531 24.7825 4.90442 24.4579 3.31294ZM25.7939 0.00706671C25.1874 0.00117782 24.5411 -0.00103056 23.855 0.000441662H14.792C14.1059 0.000441662 13.4604 0.00265004 12.8553 0.00706671C12.7346 -0.000646268 12.6135 0.00156956 12.4931 0.0136918C11.495 0.0313584 10.6094 0.0733165 9.84092 0.177108C8.45409 0.362608 7.20196 0.773358 6.19717 1.77815C5.19017 2.78515 4.77942 4.03727 4.59392 5.4219C4.49013 6.19261 4.44817 7.07815 4.43051 8.07632C4.4185 8.19592 4.41629 8.31631 4.42388 8.43628C4.41799 9.0443 4.41578 9.69061 4.41726 10.3752V10.6049C4.41726 11.2894 4.41946 11.9357 4.42388 12.5438C4.41629 12.6637 4.4185 12.7841 4.43051 12.9037C4.44817 13.9041 4.49013 14.7874 4.59392 15.5559C4.77942 16.9428 5.19017 18.1949 6.19717 19.1997C7.20196 20.2067 8.45409 20.6174 9.84092 20.8029C10.6094 20.9067 11.495 20.9487 12.4931 20.9664C12.6135 20.9785 12.7346 20.9807 12.8553 20.973C13.4604 20.9789 14.1059 20.9811 14.792 20.9796H23.855C24.5396 20.9796 25.1859 20.9774 25.7939 20.973C25.9139 20.9806 26.0343 20.9784 26.1539 20.9664C27.1543 20.9487 28.0398 20.9067 28.8061 20.8029C30.1929 20.6174 31.445 20.2067 32.4498 19.1997C33.4568 18.1949 33.8676 16.9428 34.0531 15.5559C34.1559 14.6755 34.2105 13.7901 34.2165 12.9037C34.2285 12.7841 34.2307 12.6637 34.2231 12.5438C34.229 11.9357 34.2312 11.2894 34.2298 10.6049V10.3752C34.2298 9.69061 34.2275 9.0443 34.2231 8.43628C34.2307 8.31631 34.2285 8.19592 34.2165 8.07632C34.2105 7.18993 34.1559 6.30453 34.0531 5.42411C33.8676 4.03727 33.4568 2.78515 32.452 1.78036C31.445 0.773358 30.1929 0.362608 28.8083 0.177108C27.9271 0.0742064 27.041 0.0196527 26.1539 0.0136918C26.0343 0.00169028 25.9139 -0.000525464 25.7939 0.00706671ZM27.9228 3.41011C28.1732 4.07057 28.5609 4.67036 29.0604 5.16982C29.5598 5.66928 30.1596 6.05703 30.8201 6.30744C30.8061 6.15989 30.7892 6.01264 30.7693 5.86578C30.6346 4.84553 30.3961 4.40828 30.1068 4.12119C29.8175 3.83411 29.3847 3.59782 28.3666 3.45869C28.2197 3.43954 28.0725 3.42334 27.925 3.41011M30.8223 14.6726C30.1618 14.923 29.562 15.3108 29.0626 15.8102C28.5631 16.3097 28.1754 16.9095 27.925 17.5699C28.0795 17.5552 28.2268 17.539 28.3666 17.5214C29.3869 17.3822 29.8241 17.1459 30.1112 16.8589C30.3983 16.5718 30.6368 16.1345 30.7737 15.1143C30.7914 14.9744 30.8076 14.8272 30.8223 14.6726ZM10.7265 17.5699C10.4761 16.9095 10.0883 16.3097 9.58884 15.8102C9.08938 15.3108 8.48959 14.923 7.82913 14.6726C7.84385 14.8272 7.86078 14.9744 7.87992 15.1143C8.01684 16.1345 8.25313 16.5718 8.54242 16.8589C8.83171 17.1459 9.26455 17.3822 10.2826 17.5214C10.4239 17.539 10.5719 17.5552 10.7265 17.5699ZM7.82913 6.30744C8.48959 6.05703 9.08938 5.66928 9.58884 5.16982C10.0883 4.67036 10.4761 4.07057 10.7265 3.41011C10.5719 3.42483 10.4247 3.44176 10.2848 3.4609C9.26455 3.59782 8.8273 3.83411 8.54021 4.1234C8.25313 4.41269 8.01684 4.84553 7.87771 5.86357L7.82913 6.30744ZM19.3235 9.93794C19.1771 9.93794 19.0367 9.99611 18.9331 10.0996C18.8296 10.2032 18.7714 10.3436 18.7714 10.49C18.7714 10.6364 18.8296 10.7769 18.9331 10.8804C19.0367 10.9839 19.1771 11.0421 19.3235 11.0421C19.4699 11.0421 19.6104 10.9839 19.7139 10.8804C19.8174 10.7769 19.8756 10.6364 19.8756 10.49C19.8756 10.3436 19.8174 10.2032 19.7139 10.0996C19.6104 9.99611 19.4699 9.93794 19.3235 9.93794ZM15.4589 10.49C15.4589 9.46507 15.8661 8.4821 16.5908 7.75735C17.3156 7.0326 18.2986 6.62544 19.3235 6.62544C20.3485 6.62544 21.3314 7.0326 22.0562 7.75735C22.7809 8.4821 23.1881 9.46507 23.1881 10.49C23.1881 11.515 22.7809 12.4979 22.0562 13.2227C21.3314 13.9474 20.3485 14.3546 19.3235 14.3546C18.2986 14.3546 17.3156 13.9474 16.5908 13.2227C15.8661 12.4979 15.4589 11.515 15.4589 10.49ZM12.0007 26.9377C16.1214 26.1405 20.5315 26.3194 24.1023 28.4482C24.6014 28.7463 25.074 29.1195 25.4825 29.5789C26.3129 30.513 26.7413 31.6702 26.7612 32.8317C27.1822 32.5579 27.607 32.2583 28.0354 31.9329L32.028 28.9186C33.0283 28.1845 34.2367 27.7886 35.4775 27.7886C36.7182 27.7886 37.9266 28.1845 38.9269 28.9186C40.7708 30.3098 41.5084 32.8119 40.1856 34.9319C39.2471 36.4357 37.8338 38.5182 36.3939 39.852C34.9364 41.1991 32.8672 42.3342 31.3015 43.0894C29.3979 44.0081 27.3442 44.516 25.3456 44.8384C21.2602 45.5009 17.0114 45.3994 12.9745 44.5668C10.8927 44.1388 8.77303 43.922 6.64767 43.9198H1.65684C1.21757 43.9198 0.7963 43.7453 0.485693 43.4347C0.175086 43.1241 0.000589003 42.7028 0.000589003 42.2635C0.000589003 41.8243 0.175086 41.403 0.485693 41.0924C0.7963 40.7818 1.21757 40.6073 1.65684 40.6073H6.64767C8.99292 40.6073 11.3625 40.8524 13.6437 41.3228C17.3231 42.0778 21.1088 42.1608 24.8178 41.5679C26.6463 41.272 28.3556 40.8325 29.8617 40.106C31.37 39.3772 33.066 38.4188 34.1414 37.4229C35.2301 36.4136 36.4469 34.6669 37.3766 33.1784C37.6571 32.7279 37.6173 32.0809 36.9305 31.5619C36.1135 30.9436 34.8393 30.9436 34.0244 31.5619L30.0339 34.5763C28.4395 35.7799 26.4785 37.0673 24.0471 37.456C23.7924 37.4963 23.5369 37.5316 23.2808 37.562C23.1542 37.5841 23.0225 37.5988 22.8855 37.6061C21.4667 37.7439 20.0379 37.7439 18.619 37.6061C18.3991 37.5902 18.1845 37.5305 17.9879 37.4305C17.7914 37.3305 17.6167 37.1923 17.4743 37.0239C17.3319 36.8556 17.2245 36.6604 17.1585 36.45C17.0925 36.2396 17.0691 36.0181 17.0899 35.7985C17.1106 35.5789 17.175 35.3657 17.2792 35.1714C17.3835 34.977 17.5255 34.8055 17.6969 34.6667C17.8684 34.528 18.0658 34.4249 18.2776 34.3635C18.4894 34.3021 18.7114 34.2836 18.9304 34.3091C20.1555 34.4277 21.3893 34.4255 22.6139 34.3025L22.6802 34.2959C22.8862 34.168 23.0613 33.996 23.1928 33.7923C23.3243 33.5885 23.409 33.3581 23.4407 33.1177C23.4724 32.8773 23.4503 32.6329 23.3761 32.402C23.3018 32.1712 23.1773 31.9597 23.0114 31.7828C22.8343 31.5903 22.6297 31.4251 22.4041 31.2925C19.7961 29.7356 16.3113 29.4773 12.63 30.1884C9.03388 30.9103 5.62486 32.3648 2.61526 34.4615C2.43777 34.5873 2.23724 34.677 2.0251 34.7254C1.81297 34.7737 1.59338 34.7798 1.37889 34.7433C1.16439 34.7068 0.959186 34.6284 0.774986 34.5126C0.590786 34.3968 0.4312 34.2459 0.305339 34.0684C0.179478 33.8909 0.0898067 33.6904 0.0414455 33.4782C-0.00691576 33.2661 -0.0130201 33.0465 0.023481 32.832C0.0971985 32.3988 0.339982 32.0127 0.698422 31.7585C4.09335 29.3898 7.94128 27.7485 12.0007 26.9377Z" fill="#A40201"/>
</svg>
