<svg width="45" height="45" viewBox="0 0 45 45" fill="none" xmlns="http://www.w3.org/2000/svg">
<path d="M26.9335 2.00779L42.1654 17.2397C42.8019 17.8762 43.3068 18.6318 43.6513 19.4634C43.9958 20.2951 44.1732 21.1864 44.1732 22.0866C44.1732 22.9867 43.9958 23.8781 43.6513 24.7097C43.3068 25.5413 42.8019 26.297 42.1654 26.9335L26.9335 42.1654C26.297 42.8019 25.5413 43.3068 24.7097 43.6513C23.8781 43.9958 22.9867 44.1732 22.0866 44.1732C21.1864 44.1732 20.2951 43.9958 19.4634 43.6513C18.6318 43.3068 17.8762 42.8019 17.2397 42.1654L2.00779 26.9335C1.37124 26.297 0.866307 25.5413 0.521809 24.7097C0.177311 23.8781 0 22.9867 0 22.0866C0 21.1864 0.177311 20.2951 0.521809 19.4634C0.866307 18.6318 1.37124 17.8762 2.00779 17.2397L17.2397 2.00779C17.8762 1.37124 18.6318 0.866307 19.4634 0.521809C20.2951 0.177311 21.1864 0 22.0866 0C22.9867 0 23.8781 0.177311 24.7097 0.521809C25.5413 0.866307 26.297 1.37124 26.9335 2.00779ZM22.0866 27.6267L17.2397 32.4736C16.4955 33.2177 15.6241 33.7524 14.6958 34.0833L20.0088 39.3963C20.2816 39.6693 20.6055 39.8858 20.962 40.0335C21.3185 40.1813 21.7007 40.2573 22.0866 40.2573C22.4725 40.2573 22.8546 40.1813 23.2111 40.0335C23.5677 39.8858 23.8916 39.6693 24.1644 39.3963L29.4773 34.0833C28.5199 33.7421 27.6502 33.1923 26.9315 32.4736L22.0866 27.6267ZM10.317 14.4687L4.77687 20.0107C4.22677 20.5615 3.91779 21.3081 3.91779 22.0866C3.91779 22.865 4.22677 23.6116 4.77687 24.1624L10.317 29.7045C10.8678 30.2546 11.6144 30.5636 12.3928 30.5636C13.1713 30.5636 13.9179 30.2546 14.4687 29.7045L19.3175 24.8557C20.052 24.1214 21.048 23.7089 22.0866 23.7089C23.1251 23.7089 24.1212 24.1214 24.8557 24.8557L29.7025 29.7025C30.2534 30.2532 31.0004 30.5626 31.7794 30.5626C32.5583 30.5626 33.3053 30.2532 33.8562 29.7025L39.3963 24.1644C39.947 23.6135 40.2563 22.8665 40.2563 22.0876C40.2563 21.3086 39.947 20.5616 39.3963 20.0107L33.8562 14.4706C33.3053 13.9199 32.5583 13.6106 31.7794 13.6106C31.0004 13.6106 30.2534 13.9199 29.7025 14.4706L24.8557 19.3175C24.1212 20.0518 23.1251 20.4642 22.0866 20.4642C21.048 20.4642 20.052 20.0518 19.3175 19.3175L14.4706 14.4706C13.9198 13.9205 13.1732 13.6115 12.3948 13.6115C11.6163 13.6115 10.8697 13.9205 10.319 14.4706M20.0127 4.77883L14.6939 10.0898C15.6221 10.4227 16.4955 10.9574 17.2377 11.7015L22.0846 16.5484L26.9315 11.7015C27.6757 10.9574 28.5452 10.4208 29.4754 10.0898L24.1644 4.77883C23.8916 4.50586 23.5677 4.28931 23.2111 4.14157C22.8546 3.99383 22.4725 3.91779 22.0866 3.91779C21.7007 3.91779 21.3185 3.99383 20.962 4.14157C20.6055 4.28931 20.2816 4.50586 20.0088 4.77883" fill="#A40201"/>
</svg>
