<svg width="36" height="32" viewBox="0 0 36 32" fill="none" xmlns="http://www.w3.org/2000/svg">
<path d="M3.17368 3.1737C5.10712 1.23992 7.70034 0.108849 10.433 0.00745609C13.1657 -0.0939368 15.8356 0.841847 17.907 2.62704C19.9766 0.844822 22.643 -0.0899101 25.3724 0.00997498C28.1017 0.10986 30.6927 1.23699 32.6265 3.16572C34.5602 5.09444 35.6942 7.68241 35.8012 10.4115C35.9082 13.1406 34.9805 15.8095 33.2037 17.8837L20.262 30.867C19.6674 31.4618 18.87 31.8099 18.0295 31.8414C17.1891 31.8729 16.3678 31.5856 15.7303 31.037L15.547 30.8687L2.60701 17.8837C0.83116 15.8113 -0.0970227 13.1449 0.00803628 10.4177C0.113095 7.69046 1.24365 5.1034 3.17368 3.1737ZM5.53034 5.53037C4.16741 6.89368 3.38177 8.72944 3.33646 10.6567C3.29115 12.5839 3.98966 14.4545 5.28701 15.8804L5.53034 16.137L17.9053 28.512L26.7437 19.6704L20.852 13.7804L19.0853 15.547C18.1478 16.485 16.8761 17.0121 15.5499 17.0125C14.2237 17.0128 12.9517 16.4862 12.0137 15.5487C11.0757 14.6112 10.5486 13.3394 10.5483 12.0132C10.5479 10.687 11.0745 9.41502 12.012 8.47704L15.5153 4.97204C14.1213 3.85901 12.3761 3.27933 10.5931 3.33706C8.81017 3.39479 7.10617 4.08615 5.78701 5.28704L5.53034 5.53037ZM19.6737 10.2437C19.9862 9.93125 20.4101 9.75573 20.852 9.75573C21.294 9.75573 21.7178 9.93125 22.0303 10.2437L29.1003 17.3137L30.2803 16.137C31.6661 14.7523 32.455 12.8802 32.4784 10.9213C32.5018 8.96238 31.7577 7.07207 30.4054 5.65463C29.053 4.23719 27.1998 3.40515 25.2419 3.33646C23.2841 3.26777 21.377 3.96787 19.9287 5.28704L19.6737 5.53037L14.3703 10.8337C14.0815 11.1224 13.9086 11.5071 13.8847 11.9148C13.8607 12.3225 13.9873 12.7248 14.2403 13.0454L14.3703 13.1904C14.659 13.4793 15.0437 13.6521 15.4515 13.676C15.8592 13.7 16.2615 13.5734 16.582 13.3204L16.727 13.1904L19.6737 10.2437Z" fill="#A40201"/>
</svg>
